<svg id="Layer_1" data-name="Layer 1" xmlns="http://www.w3.org/2000/svg" viewBox="0 0 320 150.51"><defs><style>.cls-1{fill:#0b4dad;}.cls-2{fill:#5ac0b1;}</style></defs><path class="cls-1" d="M229.64,36.2,207.27,72.75a3.49,3.49,0,0,1-4.33,1.39c-.27-.13-26.57-11.32-44.31-11.32S114.76,74,114.49,74.13a3.46,3.46,0,0,1-4.33-1.38L87.78,36.2,79.06,141.29H238.37ZM128.46,117a8.34,8.34,0,1,1,8.34-8.34A8.34,8.34,0,0,1,128.46,117Zm63.89,0a8.34,8.34,0,1,1,8.34-8.34A8.34,8.34,0,0,1,192.35,117Z"/><path class="cls-2" d="M309.56,25v99.33a17,17,0,0,1-17,17H245.34l-1.29-15.57,33.4,5.14a1.77,1.77,0,0,0,.32,0,2.08,2.08,0,0,0,.32-4.14l-34.4-5.29L243,112.6,271,110a2.07,2.07,0,0,0,1.87-2.26,2.1,2.1,0,0,0-2.26-1.89l-28,2.54-.54-6.36,43.34-15.76A2.08,2.08,0,0,0,284,82.39L241.73,97.76l-6-72.72a3.48,3.48,0,0,0-6.43-1.53l-26.38,43.1c-7.5-3-28.44-10.73-44.25-10.73S122,63.61,114.53,66.6L88.16,23.51A3.47,3.47,0,0,0,81.74,25l-6,72.5L34,82.39a2.08,2.08,0,0,0-1.41,3.92l42.75,15.54-.54,6.53-27.42-2.49A2.08,2.08,0,0,0,47,110l27.46,2.5-.75,9L40,126.74a2.08,2.08,0,0,0,.32,4.14,1.77,1.77,0,0,0,.32,0l32.79-5-1.29,15.47H26.56a17,17,0,0,1-17-17V25a17,17,0,0,1,17-17h266A17,17,0,0,1,309.56,25Z"/></svg>